<?xml version="1.0" encoding="utf-8"?>
<!-- Generator: Adobe Illustrator 23.0.5, SVG Export Plug-In . SVG Version: 6.00 Build 0)  -->
<svg version="1.1" id="Layer_1" xmlns="http://www.w3.org/2000/svg" xmlns:xlink="http://www.w3.org/1999/xlink" x="0px" y="0px"
	 viewBox="0 0 410 404" style="enable-background:new 0 0 410 404;" xml:space="preserve">
<style type="text/css">
	.st0{fill-rule:evenodd;clip-rule:evenodd;fill:#324A5E;}
	.st1{fill-rule:evenodd;clip-rule:evenodd;fill:#FD8469;}
	.st2{fill-rule:evenodd;clip-rule:evenodd;fill:#FFD05B;}
	.st3{fill-rule:evenodd;clip-rule:evenodd;fill:#FFFFFF;}
	.st4{fill-rule:evenodd;clip-rule:evenodd;fill:#F9B54C;}
	.st5{fill-rule:evenodd;clip-rule:evenodd;fill:#E6E9EE;}
</style>
<g>
	<rect x="38" y="10.3" class="st0" width="335" height="385"/>
	<path class="st1" d="M189.4,130c4.5,0,8.4,3.8,8.4,8.6v32.9c0,4.3-4,8.1-8.4,8.1c-33.8,0-67.5,0-101.2,0c-5,0-8.4-3.8-8.4-8.1
		v-32.9c0-4.8,3.5-8.6,8.4-8.6C121.9,130,155.6,130,189.4,130L189.4,130z"/>
	<path class="st2" d="M221.6,130h34.7c4.5,0,8.4,3.8,8.4,8.6v32.9c0,4.3-4,8.1-8.4,8.1h-34.7c-4.5,0-8.4-3.8-8.4-8.1v-32.9
		C213.2,133.8,217.2,130,221.6,130L221.6,130z"/>
	<path class="st1" d="M288.6,130h34.2c5,0,8.9,3.8,8.9,8.6v32.9c0,4.3-4,8.1-8.9,8.1h-34.2c-4.5,0-8.4-3.8-8.4-8.1v-32.9
		C280.2,133.8,284.2,130,288.6,130L288.6,130z"/>
	<path class="st3" d="M88.1,193h34.3c5,0,8.4,3.8,8.4,8.1v33.4c0,4.3-3.5,8.1-8.4,8.1H88.1c-5,0-8.4-3.8-8.4-8.1v-33.4
		C79.7,196.8,83.2,193,88.1,193L88.1,193z"/>
	<path class="st3" d="M155.1,193h34.2c4.5,0,8.4,3.8,8.4,8.1v33.4c0,4.3-4,8.1-8.4,8.1h-34.2c-5,0-8.9-3.8-8.9-8.1v-33.4
		C146.2,196.8,150.2,193,155.1,193L155.1,193z"/>
	<path class="st3" d="M221.6,193h34.7c4.5,0,8.4,3.8,8.4,8.1v33.4c0,4.3-4,8.1-8.4,8.1h-34.7c-4.5,0-8.4-3.8-8.4-8.1v-33.4
		C213.2,196.8,217.2,193,221.6,193L221.6,193z"/>
	<path class="st3" d="M288.6,193h34.2c5,0,8.9,3.8,8.9,8.1v33.4c0,4.3-4,8.1-8.9,8.1h-34.2c-4.5,0-8.4-3.8-8.4-8.1v-33.4
		C280.2,196.8,284.2,193,288.6,193L288.6,193z"/>
	<path class="st3" d="M88.1,256h34.3c5,0,8.4,3.8,8.4,8.1v33.4c0,4.3-3.5,8.1-8.4,8.1H88.1c-5,0-8.4-3.8-8.4-8.1v-33.4
		C79.7,259.8,83.2,256,88.1,256L88.1,256z"/>
	<path class="st3" d="M155.1,256h34.2c4.5,0,8.4,3.8,8.4,8.1v33.4c0,4.3-4,8.1-8.4,8.1h-34.2c-5,0-8.9-3.8-8.9-8.1v-33.4
		C146.2,259.8,150.2,256,155.1,256L155.1,256z"/>
	<path class="st3" d="M221.6,256h34.7c4.5,0,8.4,3.8,8.4,8.1v33.4c0,4.3-4,8.1-8.4,8.1h-34.7c-4.5,0-8.4-3.8-8.4-8.1v-33.4
		C213.2,259.8,217.2,256,221.6,256L221.6,256z"/>
	<path class="st3" d="M88.1,318.9h34.3c5,0,8.4,3.3,8.4,8.1V360c0,4.8-3.5,8.1-8.4,8.1H88.1c-5,0-8.4-3.3-8.4-8.1v-32.9
		C79.7,322.3,83.2,318.9,88.1,318.9L88.1,318.9z"/>
	<path class="st3" d="M155.1,318.9h34.2c4.5,0,8.4,3.3,8.4,8.1V360c0,4.8-4,8.1-8.4,8.1h-34.2c-5,0-8.9-3.3-8.9-8.1v-32.9
		C146.2,322.3,150.2,318.9,155.1,318.9L155.1,318.9z"/>
	<path class="st3" d="M221.6,318.9h34.7c4.5,0,8.4,3.3,8.4,8.1V360c0,4.8-4,8.1-8.4,8.1h-34.7c-4.5,0-8.4-3.3-8.4-8.1v-32.9
		C213.2,322.3,217.2,318.9,221.6,318.9L221.6,318.9z"/>
	<path class="st4" d="M331.8,360c0,4.8-4,8.1-8.9,8.1h-34.2c-4.5,0-8.4-3.3-8.4-8.1c0-32,0-63.9,0-95.9c0-4.3,4-8.1,8.4-8.1h34.2
		c5,0,8.9,3.8,8.9,8.1C331.8,296,331.8,328,331.8,360L331.8,360z"/>
	<rect x="60.8" y="36" class="st5" width="289.3" height="61.5"/>
	<path class="st0" d="M320.4,48c4,0,6.9,1.4,9.4,3.8l0,0l0,0c2.5,1.9,4,5.2,4,8.6v9.5c0,3.3-1.5,6.7-4,9.1c-2.5,2.4-5.5,3.8-9.4,3.8
		c-3.5,0-6.9-1.4-9.4-3.8l0,0c-2-2.4-3.5-5.7-3.5-9.1v-9.5c0-3.3,1.5-6.7,3.5-8.6C313.4,49.4,316.9,48,320.4,48L320.4,48L320.4,48z
		 M326.3,54.6L326.3,54.6c-1.5-1.4-3.5-2.4-6-2.4c-2,0-4.5,1-6,2.4c-1.5,1.4-2.5,3.8-2.5,5.7v9.5c0,2.4,1,4.3,2.5,5.7
		c1.5,1.4,3.5,2.4,6,2.4c2.5,0,4.5-1,6-2.4c1.5-1.4,2.5-3.3,2.5-5.7v-9.5C328.8,58.5,327.8,56.1,326.3,54.6L326.3,54.6L326.3,54.6z"
		/>
</g>
</svg>
